PathFileType	4	(X/Y/Z)	C:/Users/beibeiliu/ov580/test_trc/User3\out3_training_dense_left.trc
DataRate	CameraRate	NumFrames	NumMarkers	Units	OrigDataRate	OrigDataStartFrame	OrigNumFrames
120	120	14	19	mm	120	313	500
Frame#	Time	ThumbCMC			ThumbMCP			ThumbIP			ThumbTip			IndexMCP			IndexPIP			IndexTip			MiddleMCP			MiddlePIP			MiddleTip			RingMCP			RingPIP			RingTip			PinkyMCP			PinkyPIP			PinkyTip			BackHand1			BackHand2			BackHand3	
		X0	Y0	Z0	X1	Y1	Z1	X2	Y2	Z2	X3	Y3	Z3	X4	Y4	Z4	X5	Y5	Z5	X6	Y6	Z6	X7	Y7	Z7	X8	Y8	Z8	X9	Y9	Z9	X10	Y10	Z10	X11	Y11	Z11	X12	Y12	Z12	X13	Y13	Z13	X14	Y14	Z14	X15	Y15	Z15	X16	Y16	Z16	X17	Y17	Z17	X18	Y18	Z18	
312	2.6	-176.777	58.7556	52.8793	-172.765	73.0247	28.3122	-165.157	80.881	1.74768	-153.154	72.9732	-22.7084	-172.72	43.3681	-24.5539	-140.316	49.6306	-29.7344	-134.18	48.3834	2.97088	-163.263	21.2609	-25.0403	-130.359	34.0428	-21.7389	-137.691	31.0841	17.7018	-151.941	6.39777	-16.3191	-125.165	16.1279	-6.9964	-136.929	20.8627	24.7412	-146.234	-6.39371	-6.96783	-124.661	4.49051	5.44946	-129.95	4.98843	34.1444	-189.258	-4.22886	27.1244	-188.383	-5.47164	61.2073	-194.509	28.6081	46.0791	
313	2.60833	-171.368	58.8739	56.079	-162.622	72.655	30.7777	-150.847	76.4887	-3.31223	-137.954	69.0023	-22.6059	-174.586	42.1588	-21.9202	-144.537	45.3747	-36.2262	-131.865	50.2076	-4.25425	-162.392	25.6305	-25.7317	-128.578	28.0555	-24.0958	-133.207	31.5129	16.3754	-149.402	7.20588	-16.5335	-122.451	11.2912	-4.78567	-134.421	19.3981	26.2911	-147.342	-8.21111	-3.21081	-121.717	3.97839	4.45195	-130.685	6.07816	33.6224	-189.714	-1.66673	26.7185	-189.506	-5.94387	61.7982	-194.279	29.3064	44.9384	
314	2.61667	-167.091	56.1859	55.202	-151.918	68.5214	26.2026	-137.931	71.9395	-0.290886	-125.696	57.3272	-18.5833	-174.761	41.0656	-21.0636	-145.467	45.6919	-37.2055	-132.247	50.5071	-5.82308	-160.736	21.8773	-23.5865	-128.43	30.1322	-24.8643	-130.648	32.1874	14.8214	-149.595	3.18342	-14.0239	-122.629	15.8913	-7.53421	-130.188	20.2157	25.1692	-144.902	-6.11168	-5.04684	-120.551	1.06111	2.9783	-126.917	5.28454	34.8282	-185.67	-4.54087	26.9184	-186.181	-6.764	62.5197	-191.806	25.7585	44.075	
315	2.625	-163.667	56.0325	53.3353	-146.275	64.7009	25.0258	-132.706	64.2926	-1.23512	-120.883	51.0195	-25.679	-170.915	41.3266	-26.5716	-142.25	48.9286	-36.9044	-131.922	51.9748	-5.01859	-156.228	24.0243	-26.9053	-124.741	31.7889	-22.5759	-129.538	29.541	15.8869	-147.726	6.00034	-14.2725	-119.945	14.6214	-3.23558	-130.133	17.5878	27.3582	-143.013	-7.13275	-4.23897	-119.607	4.61593	6.43401	-131.164	6.27857	36.0441	-185.664	-0.995413	29.6718	-185.232	-6.91252	60.9292	-191.648	26.1268	45.4739	
316	2.63333	-161.03	53.1814	50.9625	-145.41	60.4265	21.7241	-131.15	65.0987	-7.6982	-120.425	51.6744	-22.3066	-171.868	40.8261	-21.7717	-141.586	44.2681	-36.9351	-132.099	51.6924	-1.24905	-157.002	23.4601	-25.2756	-124.938	27.1229	-22.3788	-130.983	28.552	18.108	-143.645	3.94729	-14.8429	-118.241	12.4384	-3.33499	-129.392	15.5876	28.312	-138.393	-10.3068	-5.95799	-117.893	1.28627	7.99048	-129.243	7.11995	33.8974	-184.814	-2.53882	30.9101	-185.907	-4.31748	62.3329	-192.023	29.4441	44.3455	
317	2.64167	-159.853	56.853	50.416	-142.556	62.6748	24.5511	-129.683	66.6836	-5.4039	-118.729	56.8604	-27.2569	-167.634	38.2157	-25.112	-138.591	43.9568	-35.2627	-130.424	45.0224	0.624168	-156.995	18.4629	-23.9176	-124.073	31.4419	-21.0685	-128.302	27.1941	15.755	-143.363	3.03072	-13.7024	-118.708	13.8484	-4.02136	-130.836	17.2147	28.8314	-141.582	-11.2824	-3.82512	-117.861	1.65369	8.25275	-130.626	6.59374	37.6134	-185.5	-4.80837	31.4436	-183.287	-3.83929	62.1804	-188.318	28.9438	44.4785	
318	2.65	-159.037	56.803	50.9671	-142.742	63.665	25.488	-130.408	67.6565	-5.38712	-120.639	58.9395	-24.0478	-165.441	40.3177	-25.5143	-135.763	48.7924	-33.4554	-126.648	46.0489	-0.51337	-153.124	23.7095	-26.5287	-123.021	25.1286	-21.6494	-129.927	28.1604	17.5519	-147.808	5.39172	-12.2727	-117.364	12.4332	-2.33696	-132.607	17.4486	30.3782	-141.466	-12.9415	-2.75008	-119.146	1.54592	6.81627	-127.547	3.73074	33.8475	-183.942	-3.6498	32.6062	-182.19	-3.40588	63.4176	-189.381	29.3257	47.2711	
319	2.65833	-158.659	56.4662	49.2757	-143.688	65.8227	25.6204	-132.97	70.6874	-5.46659	-124.52	61.5101	-24.0912	-164.947	44.1206	-24.9791	-135.473	45.4181	-32.6693	-127.398	42.6406	1.5498	-152.815	18.9126	-26.8602	-121.581	27.8909	-19.6215	-128.939	27.915	17.3889	-145.457	5.10961	-13.5862	-119.064	10.7851	-3.72878	-130.302	15.5196	29.4366	-143.519	-9.77566	-2.72965	-117.46	-3.94247	6.98989	-127.852	3.14437	36.6242	-183.125	-2.83984	27.5331	-183.137	-2.0045	62.7461	-188.703	27.6024	46.3564	
320	2.66667	-160.477	52.9784	53.9922	-149.532	64.4321	22.3141	-140.812	69.2279	-5.87415	-133.225	64.963	-29.1969	-166.603	39.8191	-20.8405	-134.419	47.7007	-31.0706	-129.228	47.396	5.32301	-156.404	18.8024	-23.0264	-122.941	28.1204	-20.1667	-130.779	24.098	17.5947	-144.524	4.45038	-14.3314	-117.839	9.37601	-0.778655	-134.538	15.1714	31.2361	-143.704	-12.8428	-2.93808	-119.314	0.576084	5.29506	-129.434	3.70305	37.5967	-185.294	-5.99717	29.0743	-184.816	-4.04562	62.5611	-187.567	28.7726	49.0722	
321	2.675	-164.018	52.2345	50.5923	-154.2	68.4617	25.39	-149.335	71.8027	-3.36376	-142.42	69.7012	-28.1649	-164.002	38.5111	-23.837	-136.492	47.7169	-30.035	-131.19	45.7001	7.02013	-156.398	22.3934	-25.9602	-127.024	26.1533	-23.3208	-132.761	26.9441	17.4045	-149.504	5.35604	-13.2774	-119.939	12.9959	-1.87881	-133.988	16.9503	28.5899	-146.888	-10.5046	-1.4466	-119.225	-0.964223	6.96413	-129.98	5.24187	36.4566	-184.865	-4.3014	31.3465	-185.875	-2.3461	64.1103	-190.198	27.5176	47.9181	
322	2.68333	-165.672	53.8094	56.0532	-163.078	65.7867	23.9744	-159.809	73.6325	-3.58897	-155.366	68.4843	-28.6941	-164.131	36.4638	-24.2805	-136.01	42.6043	-28.3156	-132.748	43.0736	5.3084	-158.624	22.4659	-24.8931	-127.548	24.204	-22.5865	-136.071	29.2372	19.588	-148.239	1.28793	-12.2711	-121.183	10.7053	-2.8322	-133.419	16.9081	26.3169	-144.292	-9.95013	-2.82099	-119.268	-2.28403	8.76345	-129.781	5.14656	32.8306	-184.802	-2.12805	33.0931	-183.681	-3.72934	63.3544	-189.739	25.7528	43.8287	
323	2.69167	-171.463	54.8833	53.2519	-169.835	64.8359	27.9107	-168.627	69.2842	0.128741	-165.285	69.0412	-24.872	-167.046	35.0529	-22.4765	-138.198	46.2338	-27.731	-137.658	44.4825	9.73962	-159.525	18.8387	-23.3593	-128.212	27.5101	-20.5828	-139.062	28.0535	20.4476	-147.678	3.50353	-13.9506	-121.24	8.34457	-1.61328	-136.594	14.1398	29.6557	-145.019	-11.9774	-0.759456	-120.015	-1.10638	7.81162	-132.218	3.01408	37.3117	-186.266	-9.59623	35.9183	-184.15	-5.43634	62.4672	-192.491	28.5931	45.4876	
324	2.7	-174.741	52.7311	53.8586	-175.812	60.9451	28.5549	-179.071	68.8136	-2.17653	-175.134	69.3018	-23.2619	-169.752	31.3135	-20.4927	-138.361	40.1417	-25.2862	-139.444	43.9526	8.72564	-162.255	14.1491	-21.4728	-129.751	21.6131	-21.597	-136.727	24.2023	17.3472	-149.346	2.2028	-12.2257	-122.962	9.96644	-3.18849	-137.771	13.8783	29.9322	-147.555	-14.4094	1.21671	-120.212	-3.3409	9.76972	-134.492	4.41163	35.3129	-187.025	-11.9999	34.8224	-184.951	-8.43456	65.8741	-194.282	22.3243	48.5724	
325	2.70833	-179.167	52.3175	54.1219	-183.623	64.1326	27.7527	-187.135	66.9435	-3.03718	-182.948	67.5181	-24.1227	-171.6	29.6605	-19.888	-141.18	40.4859	-25.1132	-140.893	42.7513	7.44432	-161.087	13.1179	-23.3221	-131.377	20.7507	-20.1815	-140.918	25.8113	18.2815	-151.678	-3.63668	-10.6582	-122.525	7.43689	0.661193	-137.312	14.7148	28.8094	-147.153	-15.9451	0.537487	-121.973	-0.99786	9.77888	-135.844	3.00489	36.2554	-187.861	-11.0476	33.5837	-185.305	-9.48576	63.2542	-194.757	23.9774	46.8777	
